<svg preserveAspectRatio="none" width="100%" height="100%" overflow="visible" style="display: block;" viewBox="0 0 13.1667 16.5" fill="none" xmlns="http://www.w3.org/2000/svg">
<path id="Icon" d="M4.08333 4.08333H3.41667C2.48325 4.08333 2.01654 4.08333 1.66002 4.26499C1.34641 4.42478 1.09145 4.67975 0.931657 4.99335C0.750001 5.34987 0.750001 5.81658 0.750001 6.75V13.0833C0.750001 14.0168 0.750001 14.4835 0.931657 14.84C1.09145 15.1536 1.34641 15.4086 1.66002 15.5683C2.01654 15.75 2.48325 15.75 3.41667 15.75H6.41667C7.35009 15.75 7.8168 15.75 8.17332 15.5683C8.48692 15.4086 8.74189 15.1536 8.90168 14.84C9.08333 14.4835 9.08333 14.0168 9.08333 13.0833V12.4167M8.25 0.750001L12.4167 4.91667V9.75C12.4167 10.6834 12.4167 11.1501 12.235 11.5067C12.0752 11.8203 11.8203 12.0752 11.5067 12.235C11.1501 12.4167 10.6834 12.4167 9.75 12.4167H6.75C5.81658 12.4167 5.34987 12.4167 4.99335 12.235C4.67975 12.0752 4.42478 11.8203 4.26499 11.5067C4.08333 11.1501 4.08333 10.6834 4.08333 9.75V3.41667C4.08333 2.48325 4.08333 2.01654 4.26499 1.66002C4.42478 1.34641 4.67975 1.09145 4.99335 0.931657C5.34987 0.750001 5.81658 0.750001 6.75 0.750001H8.25ZM12.4167 4.91667H9.58334C9.11662 4.91667 8.88327 4.91667 8.70501 4.82584C8.54821 4.74595 8.42072 4.61846 8.34083 4.46166C8.25 4.2834 8.25 4.05004 8.25 3.58333V0.750001" stroke="var(--stroke-0, #0A84FF)" stroke-width="1.5" stroke-linecap="round" stroke-linejoin="round"/>
</svg>
